# xmcd CD database file
#
# Track frame offsets:
#	187
#	44350
#	73657
#	103237
#	129922
#	142290
#	176020
#	195917
#	214295
#	252087
#	280255
#
# Disc length: 4133 seconds
#
# Revision: 0
# Processed by: cddbd v1.5.1PL2 Copyright (c) Steve Scherf et al.
# Submitted via: CDex 1.51
#
DISCID=ab10230b
DTITLE=varous - Chesky Records Promotional Sampler
DYEAR=1900
DGENRE=Jazz
TTITLE0=McCoy Tyner: Recorda Me
TTITLE1=Ana Caram: Demais
TTITLE2=Paquito D'Rivera: Havana Cafe
TTITLE3=Fred Hersch:Heartsong
TTITLE4=Kenny Rankin: I Could Write A Book
TTITLE5=Phil Woods: The Little Big Band
TTITLE6=David Chesky: Dance #1
TTITLE7=Sara K.: Wanna Spend More Time
TTITLE8=Clark Terry: Silly Samba
TTITLE9=Bruce Dunlap: Spokes
TTITLE10=Tom Harrell: Touch the SKy
EXTD=
EXTT0=
EXTT1=
EXTT2=
EXTT3=
EXTT4=
EXTT5=
EXTT6=
EXTT7=
EXTT8=
EXTT9=
EXTT10=
PLAYORDER=
